<?xml version="1.0" encoding="UTF-8" standalone="no"?>
<!DOCTYPE svg PUBLIC "-//W3C//DTD SVG 1.1//EN" "http://www.w3.org/Graphics/SVG/1.1/DTD/svg11.dtd">
<svg version="1.1" xmlns="http://www.w3.org/2000/svg" xmlns:xlink="http://www.w3.org/1999/xlink" preserveAspectRatio="xMidYMid meet" viewBox="0 0 640 640" width="640" height="640"><defs><path d="M477.5 98.98C490.74 98.98 501.46 109.7 501.46 122.93C501.46 198.08 501.46 399.58 501.46 474.73C501.46 487.96 490.74 498.69 477.5 498.69C405.67 498.69 214.11 498.69 142.27 498.69C129.04 498.69 118.31 487.96 118.31 474.73C118.31 399.58 118.31 198.08 118.31 122.93C118.31 109.7 129.04 98.98 142.27 98.98C214.11 98.98 405.67 98.98 477.5 98.98Z" id="b3k019lW9"></path><path d="M410.97 93.03C426.65 93.03 439.37 105.75 439.37 121.44C439.37 197.78 439.37 398.4 439.37 474.74C439.37 490.43 426.65 503.15 410.97 503.15C352.44 503.15 205.25 503.15 146.72 503.15C131.03 503.15 118.31 490.43 118.31 474.74C118.31 398.4 118.31 197.78 118.31 121.44C118.31 105.75 131.03 93.03 146.72 93.03C205.25 93.03 352.44 93.03 410.97 93.03Z" id="aBeVYSiy"></path><path d="M409.18 304.45C409.18 373.6 353.04 429.73 283.9 429.73C214.76 429.73 158.62 373.6 158.62 304.45C158.62 235.31 214.76 179.18 283.9 179.18C353.04 179.18 409.18 235.31 409.18 304.45Z" id="bsOOsNdbQ"></path><path d="M336.7 298.83C336.7 327.35 313.04 350.51 283.9 350.51C254.76 350.51 231.1 327.35 231.1 298.83C231.1 270.31 254.76 247.15 283.9 247.15C313.04 247.15 336.7 270.31 336.7 298.83Z" id="fUbEoAeJi"></path><path d="M257.08 194.89C257.08 214.72 240.9 230.83 220.98 230.83C201.06 230.83 184.88 214.72 184.88 194.89C184.88 175.05 201.06 158.94 220.98 158.94C240.9 158.94 257.08 175.05 257.08 194.89Z" id="a3BblcLeDo"></path><path d="M377.59 194.89C377.59 214.72 361.41 230.83 341.49 230.83C321.57 230.83 305.39 214.72 305.39 194.89C305.39 175.05 321.57 158.94 341.49 158.94C361.41 158.94 377.59 175.05 377.59 194.89Z" id="o1cknnaSj"></path><path d="M436.93 304.45C436.93 324.29 420.75 340.4 400.83 340.4C380.91 340.4 364.73 324.29 364.73 304.45C364.73 284.62 380.91 268.51 400.83 268.51C420.75 268.51 436.93 284.62 436.93 304.45Z" id="d17EVbDeoI"></path><path d="M377.59 414.37C377.59 434.21 361.41 450.31 341.49 450.31C321.57 450.31 305.39 434.21 305.39 414.37C305.39 394.53 321.57 378.43 341.49 378.43C361.41 378.43 377.59 394.53 377.59 414.37Z" id="jmGVAVqam"></path><path d="M257.08 414.37C257.08 434.21 240.9 450.31 220.98 450.31C201.06 450.31 184.88 434.21 184.88 414.37C184.88 394.53 201.06 378.43 220.98 378.43C240.9 378.43 257.08 394.53 257.08 414.37Z" id="cGFpV2Gql"></path><path d="M199.53 304.45C199.53 324.29 183.35 340.4 163.43 340.4C143.5 340.4 127.33 324.29 127.33 304.45C127.33 284.62 143.5 268.51 163.43 268.51C183.35 268.51 199.53 284.62 199.53 304.45Z" id="i2F7sEBDof"></path></defs><g><g><g><use xlink:href="#b3k019lW9" opacity="1" fill="#7b4590" fill-opacity="1"></use></g><g><use xlink:href="#aBeVYSiy" opacity="1" fill="#ae5fce" fill-opacity="1"></use></g><g><use xlink:href="#bsOOsNdbQ" opacity="1" fill="#5b78c7" fill-opacity="1"></use></g><g><use xlink:href="#fUbEoAeJi" opacity="1" fill="#ae5fce" fill-opacity="1"></use></g><g><use xlink:href="#a3BblcLeDo" opacity="1" fill="#ae5fce" fill-opacity="1"></use></g><g><use xlink:href="#o1cknnaSj" opacity="1" fill="#ae5fce" fill-opacity="1"></use></g><g><use xlink:href="#d17EVbDeoI" opacity="1" fill="#ae5fce" fill-opacity="1"></use></g><g><use xlink:href="#jmGVAVqam" opacity="1" fill="#ae5fce" fill-opacity="1"></use></g><g><use xlink:href="#cGFpV2Gql" opacity="1" fill="#ae5fce" fill-opacity="1"></use></g><g><use xlink:href="#i2F7sEBDof" opacity="1" fill="#ae5fce" fill-opacity="1"></use></g></g></g></svg>